<?xml version="1.0" encoding="utf-8"?>
<svg xmlns="http://www.w3.org/2000/svg" width="400" height="80" viewBox="0 0 330 60">
<title>Five Pointed Star</title>
<path fill="#000" d="m25,1 6,17h18l-14,11 5,17-15-10-15,10 5-17-14-11h18z"/>
<path fill="#000"  d="m75,1 6,17h18l-14,11 5,17-15-10-15,10 5-17-14-11h18z"/>
<path fill="#000"  d="m125,1 6,17h18l-14,11 5,17-15-10-15,10 5-17-14-11h18z"/>
<path fill="#000"  d="m175,1 6,17h18l-14,11 5,17-15-10-15,10 5-17-14-11h18z"/>
<path fill="#000"  d="m225,1 6,17h18l-14,11 5,17-15-10-15,10 5-17-14-11h18z"/>
</svg>

